<?xml version="1.0" encoding="UTF-8" standalone="no"?>
<svg
   xmlns:dc="http://purl.org/dc/elements/1.1/"
   xmlns:cc="http://creativecommons.org/ns#"
   xmlns:rdf="http://www.w3.org/1999/02/22-rdf-syntax-ns#"
   xmlns:svg="http://www.w3.org/2000/svg"
   xmlns="http://www.w3.org/2000/svg"
   xmlns:sodipodi="http://sodipodi.sourceforge.net/DTD/sodipodi-0.dtd"
   xmlns:inkscape="http://www.inkscape.org/namespaces/inkscape"
   width="140mm"
   height="80mm"
   viewBox="0 0 140 80"
   id="svg3352"
   version="1.1"
   inkscape:version="0.91 r13725"
   sodipodi:docname="anotherdaydatos.svg"
   inkscape:export-filename="/home/antonio/git/DesingInkScape/AngelAbogado/anotherday.png"
   inkscape:export-xdpi="3000"
   inkscape:export-ydpi="3000">
  <sodipodi:namedview
     pagecolor="#ffffff"
     bordercolor="#666666"
     borderopacity="1"
     objecttolerance="10"
     gridtolerance="10"
     guidetolerance="10"
     inkscape:pageopacity="0"
     inkscape:pageshadow="2"
     inkscape:window-width="1920"
     inkscape:window-height="1027"
     id="namedview37"
     showgrid="false"
     inkscape:zoom="1.5166655"
     inkscape:cx="400.31631"
     inkscape:cy="60.732308"
     inkscape:window-x="0"
     inkscape:window-y="0"
     inkscape:window-maximized="1"
     inkscape:current-layer="layer1" />
  <defs
     id="defs3" />
  <metadata
     id="metadata3356">
    <rdf:RDF>
      <cc:Work
         rdf:about="">
        <dc:format>image/svg+xml</dc:format>
        <dc:type
           rdf:resource="http://purl.org/dc/dcmitype/StillImage" />
        <dc:title></dc:title>
      </cc:Work>
    </rdf:RDF>
  </metadata>
  <g
     id="layer1"
     transform="translate(0,30)">
    <text
       id="text3367"
       y="8.2584391"
       x="26.275564"
       style="font-style:normal;font-variant:normal;font-weight:normal;font-stretch:normal;font-size:8.46666622px;line-height:125%;font-family:'Old London';-inkscape-font-specification:'Old London';letter-spacing:0px;word-spacing:0px;fill:#000000;fill-opacity:1;stroke:none;stroke-width:1px;stroke-linecap:butt;stroke-linejoin:miter;stroke-opacity:1"
       xml:space="preserve"
       sodipodi:linespacing="125%"><tspan
         y="8.2584391"
         x="26.275564"
         id="tspan3369" /></text>
    <flowRoot
       style="font-style:normal;font-weight:normal;font-size:30px;line-height:125%;font-family:sans-serif;letter-spacing:0px;word-spacing:0px;fill:#000000;fill-opacity:1;stroke:none;stroke-width:1px;stroke-linecap:butt;stroke-linejoin:miter;stroke-opacity:1"
       id="flowRoot3547"
       xml:space="preserve"><flowRegion
         id="flowRegion3549"><rect
           y="223.41536"
           x="77.5"
           height="78.75"
           width="183.33333"
           id="rect3551" /></flowRegion><flowPara
         id="flowPara3553" /></flowRoot>    <path
       id="path3371"
       d="m 23.093169,5.7793734 c -2.973472,-0.558702 -5.659703,-1.993856 -7.871179,-4.205279 -3.5224,-3.522318 -5.221396,-8.403494 -4.663491,-13.3980984 0.212951,-1.90642 0.653114,-3.444076 1.49912,-5.236991 1.250552,-2.650257 3.001779,-4.738508 5.289199,-6.307107 2.413525,-1.655075 4.919094,-2.488139 7.905271,-2.628386 8.698524,-0.408529 15.950373,6.849873 15.949386,15.963801 -2.59e-4,2.8331294 -0.504989,4.9920094 -1.757152,7.5165564 -2.16864,4.372305 -6.254738,7.446614 -11.056214,8.318503 -1.372311,0.249195 -3.904835,0.238195 -5.29494,-0.023 z m 9.02179,-5.92570396 0,-0.608271 -1.817339,0 -1.817339,0 0,-0.87861204 0,-0.878613 -0.64905,0 -0.649049,0 0,-5.474433 0,-5.4744324 -1.168289,0 -1.16829,0 0,5.4744324 0,5.474433 -0.713954,0 -0.713955,0 0,0.878613 0,0.87861204 -1.752434,0 -1.752434,0 0,0.608271 0,0.60827 6.101067,0 6.101066,0 0,-0.60827 z M 20.396797,-6.4493816 c 0.814543,-0.406664 1.722798,-1.759506 1.722798,-2.566101 0,-0.139022 -0.554938,-1.4608694 -1.233194,-2.9374384 -0.678257,-1.476569 -1.233195,-2.724003 -1.233195,-2.772077 0,-0.04807 2.803895,-0.08741 6.230877,-0.08741 3.426981,0 6.230876,0.02899 6.230876,0.06443 0,0.03544 -0.558601,1.267184 -1.241334,2.737217 -1.406333,3.0280594 -1.438555,3.2356844 -0.685778,4.4191084 0.999347,1.57105 3.298297,1.995144 4.75759,0.877645 0.515361,-0.394654 1.321036,-1.77699 1.325272,-2.273835 0.0011,-0.118229 -0.743777,-1.8414724 -1.655077,-3.8294304 l -1.656909,-3.61447 -7.084601,-0.0013 -7.084602,-0.0013 -1.661817,3.615829 -1.661817,3.6158294 0.152147,0.598358 c 0.526857,2.072005 2.848253,3.118876 4.778764,2.15506 z m 7.027474,-11.9380744 0.436804,-0.997529 -0.434315,-0.822646 -0.434315,-0.822646 -0.980201,0 -0.980202,0 -0.471451,0.832355 -0.471453,0.832355 0.471604,0.992455 0.471602,0.992455 0.977562,-0.0046 0.977561,-0.0046 0.436804,-0.997529 z"
       style="fill:#0e232e"
       inkscape:connector-curvature="0" />
    <path
       id="path3373"
       d="M 24.410701,5.8513681 C 22.074804,5.7114254 19.733134,4.871803 17.473672,3.3640563 16.366983,2.625557 14.196232,0.44842161 13.38909,-0.73254001 12.177729,-2.5049293 11.277389,-4.6325257 10.807094,-6.834066 c -0.30091,-1.4086122 -0.296284,-4.934393 0.0083,-6.343816 1.056896,-4.890287 3.999036,-8.879465 8.190874,-11.105814 2.076931,-1.103089 4.323222,-1.632286 6.933115,-1.633351 4.018816,-0.0016 7.564997,1.48374 10.466101,4.383908 2.207245,2.206533 3.636275,4.818816 4.36598,7.981059 0.348051,1.508313 0.432345,4.6523688 0.167869,6.2612715 -0.812151,4.9406273 -3.923298,9.3150347 -8.179579,11.5008513 -2.723542,1.3986763 -4.983508,1.8429561 -8.349075,1.6413253 z m 7.737581,-6.01205538 0.03527,-0.67615641 -1.828554,0 -1.828553,0 0,-0.88194441 0,-0.8819443 -0.64676,0 -0.646759,0 0,-5.4680557 0,-5.4680549 -1.234722,0 -1.234722,0 0,5.4680549 0,5.4680557 -0.705556,0 -0.705556,0 0,0.8819443 0,0.88194441 -1.763888,0 -1.763889,0 0,0.62715982 c 0,0.34493761 0.03575,0.6629089 0.07944,0.70660254 0.04369,0.0436936 2.80859,0.0657437 6.144213,0.0489966 l 6.064771,-0.0304461 0.03527,-0.67615642 z M 20.361773,-6.421263 c 0.951775,-0.4656607 1.919588,-1.9166745 1.771678,-2.6562271 -0.05419,-0.270957 -0.862822,-2.1628779 -2.11959,-4.9591219 l -0.303898,-0.676157 6.169159,0 6.16916,0 -0.420129,0.911342 c -2.092146,4.5382793 -2.215646,4.9821807 -1.653153,5.9420032 1.032562,1.7619332 3.229586,2.3586037 4.819612,1.3089146 0.523872,-0.3458444 1.336463,-1.5441962 1.447137,-2.1341346 0.08524,-0.4543662 -0.11027,-0.947473 -2.133244,-5.3804632 l -1.07367,-2.352754 -7.156567,0 -7.156567,0 -1.624019,3.525292 c -0.89321,1.938911 -1.624018,3.643489 -1.624018,3.7879503 0,0.5216429 0.475053,1.5233141 0.9499,2.0029073 1.088475,1.0993568 2.561714,1.3539045 3.938209,0.6804484 z m 7.120249,-11.952143 0.437811,-1.014804 -0.431649,-0.836384 -0.43165,-0.836384 -1.030664,-9.03e-4 -1.030663,-9.03e-4 -0.232568,0.382176 c -0.127912,0.210197 -0.343162,0.593842 -0.478331,0.852546 l -0.245762,0.47037 0.481181,1.033497 0.481182,1.033497 1.021651,-0.03396 1.021651,-0.03396 0.437811,-1.014804 z"
       style="fill:#0e232e;fill-opacity:1"
       inkscape:connector-curvature="0" />
    <flowRoot
       transform="translate(1.5010517,-33.535231)"
       style="font-style:normal;font-weight:normal;font-size:28.22222137px;line-height:125%;font-family:sans-serif;letter-spacing:0px;word-spacing:0px;fill:#0e232e;fill-opacity:1;stroke:none;stroke-width:1px;stroke-linecap:butt;stroke-linejoin:miter;stroke-opacity:1"
       id="flowRoot3474"
       xml:space="preserve"><flowRegion
         id="flowRegion3476"><rect
           style="font-size:28.22222137px;fill:#0e232e;fill-opacity:1"
           y="1.6694437"
           x="43.391666"
           height="65.381477"
           width="71.731483"
           id="rect3478" /></flowRegion><flowPara
         style="font-style:normal;font-variant:normal;font-weight:normal;font-stretch:normal;font-size:28.22222137px;font-family:'Another day in Paradise';-inkscape-font-specification:'Another day in Paradise';fill:#0e232e;fill-opacity:1"
         id="flowPara3480">A</flowPara></flowRoot>    <text
       id="text3482"
       y="-18.021856"
       x="71.574409"
       style="font-style:normal;font-weight:normal;font-size:10.58333302px;line-height:125%;font-family:sans-serif;letter-spacing:0px;word-spacing:0px;fill:#0e232e;fill-opacity:1;stroke:none;stroke-width:1px;stroke-linecap:butt;stroke-linejoin:miter;stroke-opacity:1"
       xml:space="preserve"
       sodipodi:linespacing="125%"><tspan
         style="font-style:normal;font-variant:normal;font-weight:normal;font-stretch:normal;font-size:12.69999981px;font-family:'Another day in Paradise';-inkscape-font-specification:'Another day in Paradise';letter-spacing:0.04325077px;fill:#0e232e;fill-opacity:1"
         y="-18.021856"
         x="71.574409"
         id="tspan3484">ngel Montoro</tspan><tspan
         style="font-style:normal;font-variant:normal;font-weight:normal;font-stretch:normal;font-size:12.69999981px;font-family:'Another day in Paradise';-inkscape-font-specification:'Another day in Paradise';letter-spacing:0.04325077px;fill:#0e232e;fill-opacity:1"
         id="tspan3486"
         y="-2.1468577"
         x="71.574409">bogado</tspan></text>
    <text
       id="text3488"
       y="18.367592"
       x="111.94814"
       style="font-style:normal;font-weight:normal;font-size:11.28888798px;line-height:125%;font-family:sans-serif;letter-spacing:0px;word-spacing:0px;fill:#000000;fill-opacity:1;stroke:none;stroke-width:1px;stroke-linecap:butt;stroke-linejoin:miter;stroke-opacity:1"
       xml:space="preserve"
       sodipodi:linespacing="125%"><tspan
         y="18.367592"
         x="111.94814"
         id="tspan3490" /></text>
    <flowRoot
       style="font-style:normal;font-weight:normal;font-size:40px;line-height:125%;font-family:sans-serif;letter-spacing:0px;word-spacing:0px;fill:#000000;fill-opacity:1;stroke:none;stroke-width:1px;stroke-linecap:butt;stroke-linejoin:miter;stroke-opacity:1"
       id="flowRoot3492"
       xml:space="preserve"><flowRegion
         id="flowRegion3494"><rect
           y="42.58202"
           x="222.91667"
           height="42.5"
           width="124.58334"
           id="rect3496" /></flowRegion><flowPara
         id="flowPara3498" /></flowRoot>    <flowRoot
       style="font-style:normal;font-weight:normal;font-size:40px;line-height:125%;font-family:sans-serif;letter-spacing:0px;word-spacing:0px;fill:#000000;fill-opacity:1;stroke:none;stroke-width:1px;stroke-linecap:butt;stroke-linejoin:miter;stroke-opacity:1"
       id="flowRoot3500"
       xml:space="preserve"><flowRegion
         id="flowRegion3502"><rect
           y="30.498688"
           x="141.66667"
           height="87.083336"
           width="267.5"
           id="rect3504" /></flowRegion><flowPara
         id="flowPara3506" /></flowRoot>    <flowRoot
       style="font-style:normal;font-weight:normal;font-size:40px;line-height:125%;font-family:sans-serif;letter-spacing:0px;word-spacing:0px;fill:#000000;fill-opacity:1;stroke:none;stroke-width:1px;stroke-linecap:butt;stroke-linejoin:miter;stroke-opacity:1"
       id="flowRoot3508"
       xml:space="preserve"><flowRegion
         id="flowRegion3510"><rect
           y="25.082022"
           x="149.58333"
           height="92.916664"
           width="307.91666"
           id="rect3512" /></flowRegion><flowPara
         id="flowPara3514" /></flowRoot>    <text
       id="text3516"
       y="9.6727753"
       x="45.800377"
       style="font-style:normal;font-weight:normal;font-size:11.28888798px;line-height:125%;font-family:sans-serif;letter-spacing:0px;word-spacing:0px;fill:#0e232e;fill-opacity:1;stroke:none;stroke-width:1px;stroke-linecap:butt;stroke-linejoin:miter;stroke-opacity:1"
       xml:space="preserve"
       sodipodi:linespacing="125%"
       inkscape:transform-center-x="0.37216146"
       inkscape:transform-center-y="2.6051302"><tspan
         style="font-style:normal;font-variant:normal;font-weight:normal;font-stretch:normal;font-size:7.05555534px;font-family:'Another day in Paradise';-inkscape-font-specification:'Another day in Paradise';fill:#0e232e;fill-opacity:1"
         y="9.6727753"
         x="45.800377"
         id="tspan3518">Asesoramiento integral de tu empresa</tspan></text>
    <flowRoot
       xml:space="preserve"
       id="flowRoot3445"
       style="fill:black;stroke:none;stroke-opacity:1;stroke-width:1px;stroke-linejoin:miter;stroke-linecap:butt;fill-opacity:1;font-family:'Another day in Paradise';font-style:normal;font-weight:normal;font-size:15px;line-height:135.00000238%;letter-spacing:7.92000008px;word-spacing:0px;-inkscape-font-specification:'Another day in Paradise';font-stretch:normal;font-variant:normal;"><flowRegion
         id="flowRegion3447"><rect
           id="rect3449"
           width="150.32979"
           height="66.59346"
           x="22.417601"
           y="189.83812"
           style="font-size:15px;-inkscape-font-specification:'Another day in Paradise';font-family:'Another day in Paradise';font-weight:normal;font-style:normal;font-stretch:normal;font-variant:normal;" /></flowRegion><flowPara
         id="flowPara3451"></flowPara></flowRoot>    <flowRoot
       xml:space="preserve"
       id="flowRoot3453"
       style="fill:black;stroke:none;stroke-opacity:1;stroke-width:1px;stroke-linejoin:miter;stroke-linecap:butt;fill-opacity:1;font-family:sans-serif;font-style:normal;font-weight:normal;font-size:40px;line-height:135.00000238%;letter-spacing:7.92000008px;word-spacing:0px"><flowRegion
         id="flowRegion3455"><rect
           id="rect3457"
           width="234.72546"
           height="83.736328"
           x="23.736282"
           y="191.1568" /></flowRegion><flowPara
         id="flowPara3459"></flowPara></flowRoot>    <flowRoot
       xml:space="preserve"
       id="flowRoot3461"
       style="fill:black;stroke:none;stroke-opacity:1;stroke-width:1px;stroke-linejoin:miter;stroke-linecap:butt;fill-opacity:1;font-family:'Another day in Paradise';font-style:normal;font-weight:normal;font-size:40px;line-height:135.00000238%;letter-spacing:7.92000008px;word-spacing:0px;-inkscape-font-specification:'Another day in Paradise';font-stretch:normal;font-variant:normal;"><flowRegion
         id="flowRegion3463"><rect
           id="rect3465"
           width="241.31888"
           height="63.956093"
           x="21.098917"
           y="201.04692"
           style="-inkscape-font-specification:'Another day in Paradise';font-family:'Another day in Paradise';font-weight:normal;font-style:normal;font-stretch:normal;font-variant:normal;" /></flowRegion><flowPara
         id="flowPara3467"></flowPara></flowRoot>    <text
       xml:space="preserve"
       style="font-style:normal;font-weight:normal;font-size:11.28888893px;line-height:125%;font-family:sans-serif;letter-spacing:2.23519993px;word-spacing:0px;fill:#0e232e;fill-opacity:1;stroke:none;stroke-width:1px;stroke-linecap:butt;stroke-linejoin:miter;stroke-opacity:1;"
       x="13.397814"
       y="33.997055"
       id="text3469"
       sodipodi:linespacing="125%"><tspan
         sodipodi:role="line"
         id="tspan3471"
         x="13.397814"
         y="33.997055"
         style="font-style:normal;font-variant:normal;font-weight:normal;font-stretch:normal;font-size:5.29166651px;line-height:125%;font-family:'Another day in Paradise';-inkscape-font-specification:'Another day in Paradise';letter-spacing:0px;fill:#0e232e;fill-opacity:1;">Tel. 605892646</tspan><tspan
         sodipodi:role="line"
         x="13.397814"
         y="40.925163"
         style="font-style:normal;font-variant:normal;font-weight:normal;font-stretch:normal;font-size:5.29166651px;line-height:125%;font-family:'Another day in Paradise';-inkscape-font-specification:'Another day in Paradise';letter-spacing:0px;fill:#0e232e;fill-opacity:1;"
         id="tspan3473">E-mail: angelmontoro@icagr.es</tspan></text>
    <text
       xml:space="preserve"
       style="font-style:normal;font-weight:normal;font-size:11.28888893px;line-height:125%;font-family:sans-serif;letter-spacing:2.23519993px;word-spacing:0px;fill:#0e232e;fill-opacity:1;stroke:none;stroke-width:1px;stroke-linecap:butt;stroke-linejoin:miter;stroke-opacity:1;"
       x="95.654015"
       y="28.312046"
       id="text3475"
       sodipodi:linespacing="125%"><tspan
         sodipodi:role="line"
         id="tspan3477"
         x="95.654015"
         y="28.312046"
         style="font-style:normal;font-variant:normal;font-weight:normal;font-stretch:normal;font-size:5.29166651px;line-height:125%;font-family:'Another day in Paradise';-inkscape-font-specification:'Another day in Paradise';letter-spacing:0px;fill:#0e232e;fill-opacity:1;">C/Nueva, 7</tspan><tspan
         sodipodi:role="line"
         x="95.654015"
         y="34.926628"
         id="tspan3479"
         style="font-style:normal;font-variant:normal;font-weight:normal;font-stretch:normal;font-size:5.29166651px;line-height:125%;font-family:'Another day in Paradise';-inkscape-font-specification:'Another day in Paradise';letter-spacing:0px;fill:#0e232e;fill-opacity:1;">23680 Ermita Nueva</tspan><tspan
         sodipodi:role="line"
         x="95.654015"
         y="41.541214"
         id="tspan3481"><tspan
           style="font-style:normal;font-variant:normal;font-weight:normal;font-stretch:normal;font-size:5.29166651px;line-height:125%;font-family:'Another day in Paradise';-inkscape-font-specification:'Another day in Paradise';letter-spacing:0px;fill:#0e232e;fill-opacity:1;"
           id="tspan3483">Alcalá la Real- Jaén</tspan></tspan></text>
    <flowRoot
       xml:space="preserve"
       id="flowRoot3491"
       style="fill:black;stroke:none;stroke-opacity:1;stroke-width:1px;stroke-linejoin:miter;stroke-linecap:butt;fill-opacity:1;font-family:sans-serif;font-style:normal;font-weight:normal;font-size:40px;line-height:135.00000238%;letter-spacing:7.92000008px;word-spacing:0px"><flowRegion
         id="flowRegion3493"><rect
           id="rect3495"
           width="124.9482"
           height="53.149605"
           x="288.1268"
           y="211.66599" /></flowRegion><flowPara
         id="flowPara3497"></flowPara></flowRoot>  </g>
</svg>
