<?xml version="1.0" encoding="UTF-8" standalone="no"?>
<!-- Created with Inkscape (http://www.inkscape.org/) -->

<svg
   xmlns:dc="http://purl.org/dc/elements/1.1/"
   xmlns:cc="http://creativecommons.org/ns#"
   xmlns:rdf="http://www.w3.org/1999/02/22-rdf-syntax-ns#"
   xmlns:svg="http://www.w3.org/2000/svg"
   xmlns="http://www.w3.org/2000/svg"
   xmlns:sodipodi="http://sodipodi.sourceforge.net/DTD/sodipodi-0.dtd"
   xmlns:inkscape="http://www.inkscape.org/namespaces/inkscape"
   sodipodi:docname="drawing.svg"
   inkscape:version="0.91 r13725"
   version="1.1"
   id="svg3352"
   viewBox="0 0 140 50"
   height="50mm"
   width="140mm"
   inkscape:export-filename="/home/antonio/AngelAbogado/prueba.png"
   inkscape:export-xdpi="89.989998"
   inkscape:export-ydpi="89.989998">
  <defs
     id="defs3" />
  <sodipodi:namedview
     inkscape:window-maximized="1"
     inkscape:window-y="24"
     inkscape:window-x="65"
     inkscape:window-height="1056"
     inkscape:window-width="1855"
     showgrid="false"
     inkscape:current-layer="layer1"
     inkscape:document-units="mm"
     inkscape:cy="35.321843"
     inkscape:cx="190.54854"
     inkscape:zoom="2.4"
     inkscape:pageshadow="2"
     inkscape:pageopacity="0.0"
     borderopacity="1.0"
     bordercolor="#666666"
     pagecolor="#ffffff"
     id="base"
     showborder="true" />
  <metadata
     id="metadata3356">
    <rdf:RDF>
      <cc:Work
         rdf:about="">
        <dc:format>image/svg+xml</dc:format>
        <dc:type
           rdf:resource="http://purl.org/dc/dcmitype/StillImage" />
        <dc:title></dc:title>
      </cc:Work>
    </rdf:RDF>
  </metadata>
  <g
     inkscape:label="Layer 1"
     inkscape:groupmode="layer"
     id="layer1">
    <flowRoot
       xml:space="preserve"
       id="flowRoot3359"
       style="font-style:normal;font-variant:normal;font-weight:normal;font-stretch:normal;font-size:16.39830208px;line-height:125%;font-family:'Old London Alternate';-inkscape-font-specification:'Old London Alternate';letter-spacing:0px;word-spacing:0px;fill:#000000;fill-opacity:1;stroke:none;stroke-width:1px;stroke-linecap:butt;stroke-linejoin:miter;stroke-opacity:1"
       transform="matrix(1.3424938,0,0,1.4565288,33.717397,34.477732)"><flowRegion
         id="flowRegion3361"><rect
           id="rect3363"
           width="51.885925"
           height="45.73278"
           x="4.9890308"
           y="-16.354115"
           style="font-style:normal;font-variant:normal;font-weight:normal;font-stretch:normal;font-size:16.39830208px;font-family:'Old London Alternate';-inkscape-font-specification:'Old London Alternate';fill:#000000;fill-opacity:1" /></flowRegion><flowPara
         id="flowPara3365"
         style="font-style:normal;font-variant:normal;font-weight:normal;font-stretch:normal;font-size:16.39830208px;font-family:'Big John';-inkscape-font-specification:'Big John';fill:#000000;fill-opacity:1">A</flowPara></flowRoot>    <text
       xml:space="preserve"
       style="font-style:normal;font-variant:normal;font-weight:normal;font-stretch:normal;font-size:8.46666622px;line-height:125%;font-family:'Old London';-inkscape-font-specification:'Old London';letter-spacing:0px;word-spacing:0px;fill:#000000;fill-opacity:1;stroke:none;stroke-width:1px;stroke-linecap:butt;stroke-linejoin:miter;stroke-opacity:1"
       x="26.275564"
       y="8.2584391"
       id="text3367"
       sodipodi:linespacing="125%"><tspan
         sodipodi:role="line"
         id="tspan3369"
         x="26.275564"
         y="8.2584391" /></text>
    <text
       xml:space="preserve"
       style="font-style:normal;font-variant:normal;font-weight:normal;font-stretch:normal;font-size:11.83935738px;line-height:125%;font-family:'Old London';-inkscape-font-specification:'Old London';letter-spacing:0px;word-spacing:0px;fill:#000000;fill-opacity:1;stroke:none;stroke-width:1px;stroke-linecap:butt;stroke-linejoin:miter;stroke-opacity:1"
       x="61.630589"
       y="18.897015"
       id="text3371"
       sodipodi:linespacing="125%"
       transform="scale(0.9600561,1.0416058)"><tspan
         sodipodi:role="line"
         id="tspan3373"
         x="61.630589"
         y="18.897015"
         style="font-style:normal;font-variant:normal;font-weight:normal;font-stretch:normal;font-size:8.11388874px;font-family:'Big John';-inkscape-font-specification:'Big John';letter-spacing:-0.01975556px">ngel Montoro</tspan></text>
    <text
       xml:space="preserve"
       style="font-style:normal;font-variant:normal;font-weight:normal;font-stretch:normal;font-size:14.7991972px;line-height:125%;font-family:'Old London';-inkscape-font-specification:'Old London';letter-spacing:0px;word-spacing:0px;fill:#000000;fill-opacity:1;stroke:none;stroke-width:1px;stroke-linecap:butt;stroke-linejoin:miter;stroke-opacity:1"
       x="61.655437"
       y="28.352327"
       id="text3375"
       sodipodi:linespacing="125%"
       transform="scale(0.9600561,1.0416058)"><tspan
         sodipodi:role="line"
         id="tspan3377"
         x="61.655437"
         y="28.352327"
         style="font-style:normal;font-variant:normal;font-weight:normal;font-stretch:normal;font-size:8.11388874px;font-family:'Big John';-inkscape-font-specification:'Big John';letter-spacing:-0.00564444px">bogado</tspan></text>
    <text
       xml:space="preserve"
       style="font-style:normal;font-variant:normal;font-weight:normal;font-stretch:normal;font-size:3.52777767px;line-height:125%;font-family:'Ume Mincho';-inkscape-font-specification:'Ume Mincho';letter-spacing:0px;word-spacing:0px;fill:#00008b;fill-opacity:1;stroke:none;stroke-width:1px;stroke-linecap:butt;stroke-linejoin:miter;stroke-opacity:1;"
       x="85.46209"
       y="33.721169"
       id="text3379"
       sodipodi:linespacing="125%"
       transform="scale(0.9600561,1.0416058)"><tspan
         sodipodi:role="line"
         id="tspan3381"
         x="85.46209"
         y="33.721169"
         style="font-style:normal;font-variant:normal;font-weight:normal;font-stretch:normal;font-size:3.52777767px;font-family:'Big John';-inkscape-font-specification:'Big John';text-align:center;text-anchor:middle;fill:#00008b;fill-opacity:1;">Asesoramiento integral de tu empresa</tspan></text>
    <flowRoot
       xml:space="preserve"
       id="flowRoot3547"
       style="font-style:normal;font-weight:normal;font-size:30px;line-height:125%;font-family:sans-serif;letter-spacing:0px;word-spacing:0px;fill:#000000;fill-opacity:1;stroke:none;stroke-width:1px;stroke-linecap:butt;stroke-linejoin:miter;stroke-opacity:1"><flowRegion
         id="flowRegion3549"><rect
           id="rect3551"
           width="183.33333"
           height="78.75"
           x="77.5"
           y="223.41536" /></flowRegion><flowPara
         id="flowPara3553" /></flowRoot>    <path
       style="fill:#000000"
       d="M 18.627232,38.157421 C 15.65376,37.598719 12.967529,36.163565 10.756053,33.952142 7.2336527,30.429824 5.5346562,25.548648 6.0925622,20.554044 6.3055125,18.647624 6.7456755,17.109968 7.5916819,15.317053 8.8422343,12.666796 10.593461,10.578545 12.880881,9.0099456 15.294406,7.3548708 17.799975,6.5218061 20.786152,6.3815594 29.484676,5.9730307 36.736525,13.231433 36.735538,22.345361 c -2.59e-4,2.833129 -0.504989,4.992009 -1.757152,7.516556 -2.16864,4.372305 -6.254738,7.446614 -11.056214,8.318503 -1.372311,0.249195 -3.904835,0.238195 -5.29494,-0.023 z m 9.02179,-5.925704 0,-0.608271 -1.817339,0 -1.817339,0 0,-0.878612 0,-0.878613 -0.64905,0 -0.649049,0 0,-5.474433 0,-5.474432 -1.168289,0 -1.16829,0 0,5.474432 0,5.474433 -0.713954,0 -0.713955,0 0,0.878613 0,0.878612 -1.752434,0 -1.752434,0 0,0.608271 0,0.60827 6.101067,0 6.101066,0 0,-0.60827 z M 15.93086,25.928666 c 0.814543,-0.406664 1.722798,-1.759506 1.722798,-2.566101 0,-0.139022 -0.554938,-1.460869 -1.233194,-2.937438 -0.678257,-1.476569 -1.233195,-2.724003 -1.233195,-2.772077 0,-0.04807 2.803895,-0.08741 6.230877,-0.08741 3.426981,0 6.230876,0.02899 6.230876,0.06443 0,0.03544 -0.558601,1.267184 -1.241334,2.737217 -1.406333,3.028059 -1.438555,3.235684 -0.685778,4.419108 0.999347,1.57105 3.298297,1.995144 4.75759,0.877645 0.515361,-0.394654 1.321036,-1.77699 1.325272,-2.273835 0.0011,-0.118229 -0.743777,-1.841472 -1.655077,-3.82943 l -1.656909,-3.61447 -7.084601,-0.0013 -7.084602,-0.0013 -1.661817,3.615829 -1.661817,3.615829 0.152147,0.598358 c 0.526857,2.072005 2.848253,3.118876 4.778764,2.15506 z m 7.027474,-11.938074 0.436804,-0.997529 -0.434315,-0.822646 -0.434315,-0.822646 -0.980201,0 -0.980202,0 -0.471451,0.832355 -0.471453,0.832355 0.471604,0.992455 0.471602,0.992455 0.977562,-0.0046 0.977561,-0.0046 0.436804,-0.997529 z"
       id="path3371"
       inkscape:connector-curvature="0" />
    <path
       style="fill:#00008b;fill-opacity:1"
       d="M 70.670423,135.45857 C 62.393623,134.96271 54.096368,131.98767 46.0904,126.64526 42.16906,124.02853 34.477424,116.31427 31.617471,112.12976 27.325247,105.84964 24.135067,98.310912 22.468665,90.510178 21.40245,85.519032 21.41884,73.026107 22.498155,68.032087 26.24306,50.704299 36.667965,36.569415 51.520935,28.680776 58.880139,24.772192 66.83944,22.897084 76.08709,22.893311 c 14.2399,-0.0058 26.80511,5.257347 37.08461,15.533534 7.82095,7.818425 12.88444,17.074546 15.47001,28.279346 1.23325,5.344416 1.53193,16.484771 0.59481,22.185608 -2.8777,17.506161 -13.90145,33.006031 -28.98276,40.751051 -9.650345,4.95594 -17.658099,6.53016 -29.583337,5.81572 z m 27.416625,-21.30256 0.124963,-2.39583 -6.479129,0 -6.479125,0 0,-3.125 0,-3.125 -2.291667,0 -2.291667,0 0,-19.375002 0,-19.375 -4.375,0 -4.375,0 0,19.375 0,19.375002 -2.5,0 -2.5,0 0,3.125 0,3.125 -6.25,0 -6.25,0 0,2.22222 c 0,1.22222 0.12667,2.34889 0.281489,2.50371 0.154819,0.15482 9.951695,0.23295 21.770832,0.17361 l 21.489346,-0.10788 0.124958,-2.39583 z M 56.323827,91.972866 c 3.372434,-1.649979 6.801692,-6.791367 6.2776,-9.411829 -0.192016,-0.960084 -3.057243,-7.663742 -7.510358,-17.571692 l -1.076804,-2.395833 21.859225,0 21.859229,0 -1.488646,3.229166 c -7.413116,16.080517 -7.850716,17.653396 -5.857629,21.054342 3.658683,6.243071 11.443416,8.357258 17.077366,4.637887 1.85624,-1.225433 4.7355,-5.471562 5.12765,-7.561895 0.30203,-1.609959 -0.39072,-3.357188 -7.55874,-19.064634 l -3.80434,-8.336533 -25.357915,0 -25.357917,0 -5.754396,12.491196 c -3.164917,6.870158 -5.754395,12.91 -5.754395,13.421871 0,1.848341 1.683258,5.39757 3.365787,7.096916 3.856801,3.895359 9.076939,4.7973 13.954283,2.411038 z m 25.22923,-42.350117 1.5513,-3.595763 -1.529467,-2.963565 -1.529467,-2.963564 -3.651958,-0.0032 -3.651958,-0.0032 -0.824059,1.354166 c -0.453233,0.744792 -1.215929,2.104167 -1.694875,3.020834 l -0.870808,1.666666 1.704971,3.661998 1.704975,3.661997 3.620025,-0.120331 3.620021,-0.12033 1.5513,-3.595763 z"
       id="path3373"
       inkscape:connector-curvature="0"
       transform="scale(0.28222222,0.2822222)" />
    <path
       style="fill:#00008b;fill-opacity:1"
       d="m 145.84713,103.11434 c 0.12808,-0.40104 6.20696,-14.604162 13.50862,-31.562495 l 13.27575,-30.833333 3.32526,-0.1199 3.32526,-0.119899 13.61087,31.37787 c 7.48597,17.257829 13.61087,31.519237 13.61087,31.692007 0,0.17278 -3.31636,0.26295 -7.36969,0.20037 l -7.36968,-0.11378 -1.71937,-3.958335 -1.71937,-3.958333 -12.25505,0 -12.25506,0 -1.67672,4.059037 -1.67673,4.059041 -7.42391,0.003 c -6.8822,0.003 -7.40692,-0.0496 -7.19105,-0.72558 z m 35.92611,-22.708328 c -0.31627,-0.744792 -1.65641,-3.932292 -2.97808,-7.083334 -1.32168,-3.151041 -2.52514,-5.729166 -2.67434,-5.729166 -0.22786,0 -1.58782,3.045302 -5.72177,12.8125 l -0.57314,1.354166 6.26118,0 6.26118,0 -0.57503,-1.354166 z"
       id="path3375"
       inkscape:connector-curvature="0"
       transform="scale(0.28222222,0.2822222)" />
    <path
       style="fill:#00008b;fill-opacity:1"
       d="m 211.92042,58.635178 0,-11.041666 0.9375,-0.0119 c 0.66562,-0.0084 2.41289,1.532249 6.02482,5.3125 l 5.08731,5.324401 0.0169,-5.3125 0.0169,-5.3125 2.5,0 2.5,0 0,11.041666 0,11.041667 -0.9375,-0.007 c -0.66671,-0.005 -2.38176,-1.588654 -5.9375,-5.482743 l -5,-5.475766 -0.11626,5.482744 -0.11626,5.482744 -2.48791,0 -2.48791,0 0,-11.041667 z"
       id="path3377"
       inkscape:connector-curvature="0"
       transform="scale(0.28222222,0.2822222)" />
    <path
       style="fill:#00008b;fill-opacity:1"
       d="m 301.13674,58.635178 0,-11.041666 1.15365,0 c 0.90679,0 2.042,0.891689 5.30504,4.167018 l 4.15138,4.167018 4.18125,-4.167018 c 3.25285,-3.24178 4.43409,-4.167018 5.31997,-4.167018 l 1.13871,0 0,11.041666 0,11.041667 -2.5,0 -2.5,0 0,-5.933642 0,-5.933642 -2.80535,2.805355 -2.80536,2.805356 -2.81964,-2.798039 -2.81965,-2.798038 0,5.926325 0,5.926325 -2.5,0 -2.5,0 0,-11.041667 z"
       id="path3379"
       inkscape:connector-curvature="0"
       transform="scale(0.28222222,0.2822222)" />
    <path
       style="fill:#00008b;fill-opacity:1"
       d="m 334.46738,69.287536 c -5.03414,-1.531315 -8.28341,-6.396172 -7.80391,-11.684132 0.52152,-5.751459 4.82288,-10.009536 10.09827,-9.996671 2.71401,0.0066 5.03213,1.096714 7.01966,3.301002 2.17635,2.413705 2.90669,4.297212 2.92672,7.54788 0.0309,5.018272 -2.94469,9.27367 -7.41783,10.608198 -2.23325,0.666271 -3.2179,0.711946 -4.82291,0.223723 z m 5.9402,-7.109413 c 2.21803,-2.447598 1.44398,-7.095966 -1.42903,-8.581658 -1.5965,-0.825582 -4.19776,-0.574521 -5.43165,0.524236 -1.9122,1.702773 -2.47121,4.672995 -1.30446,6.931002 1.73869,3.364867 5.64792,3.904164 8.16514,1.12642 z"
       id="path3383"
       inkscape:connector-curvature="0"
       transform="scale(0.28222222,0.2822222)" />
    <path
       style="fill:#00008b;fill-opacity:1"
       d="m 351.13674,58.635178 0,-11.041666 0.9442,0 c 0.67822,0 2.29213,1.479879 5.72917,5.253375 l 4.78497,5.253376 0.11661,-5.253376 0.11662,-5.253375 2.48755,0 2.48755,0 0,11.041666 c 0,10.636483 -0.0296,11.041667 -0.80545,11.041667 -0.49934,0 -2.6767,-2.037695 -5.72917,-5.361673 l -4.92371,-5.361672 -0.11626,5.361672 -0.11626,5.361673 -2.48791,0 -2.48791,0 0,-11.041667 z"
       id="path3385"
       inkscape:connector-curvature="0"
       transform="scale(0.28222222,0.2822222)" />
    <path
       style="fill:#00008b;fill-opacity:1"
       d="m 377.38674,61.343512 0,-8.333334 -2.70833,0 -2.70833,0 0,-2.708333 0,-2.708333 7.91666,0 7.91667,0 0,2.708333 0,2.708333 -2.70833,0 -2.70834,0 0,8.333334 0,8.333333 -2.5,0 -2.5,0 0,-8.333333 z"
       id="path3387"
       inkscape:connector-curvature="0"
       transform="scale(0.28222222,0.2822222)" />
    <path
       style="fill:#00008b;fill-opacity:1"
       d="m 397.72788,69.040129 c -2.54824,-0.812342 -5.45369,-3.700649 -6.34039,-6.302994 -1.5955,-4.682535 -0.35424,-9.813492 3.08651,-12.758654 2.26984,-1.942895 4.05439,-2.523105 7.08589,-2.303826 5.29628,0.383098 9.10364,4.949905 9.13783,10.960523 0.041,7.211886 -6.50721,12.465146 -12.96984,10.404951 z m 5.89368,-6.01914 c 1.56195,-1.112207 2.2521,-2.943083 1.98906,-5.276734 -0.55554,-4.928779 -6.72931,-6.415379 -9.20907,-2.21748 -1.36145,2.304761 -0.60358,6.19851 1.49219,7.666443 1.31729,0.922664 4.31685,0.83247 5.72782,-0.172229 z"
       id="path3389"
       inkscape:connector-curvature="0"
       transform="scale(0.28222222,0.2822222)" />
    <path
       style="fill:#00008b;fill-opacity:1"
       d="m 414.88674,58.635178 0,-11.041666 5.3125,0.0016 c 5.98927,0.0018 6.96678,0.338766 9.10185,3.137986 2.01316,2.639389 1.87035,7.2544 -0.3175,10.260163 -0.41334,0.567871 -0.25596,1.163316 0.88104,3.333333 0.76136,1.453078 1.74934,3.251335 2.19551,3.996127 l 0.81124,1.354166 -2.93988,0 -2.93988,0 -1.7151,-3.125 -1.7151,-3.125 -1.83734,0 -1.83734,0 0,3.125 0,3.125 -2.5,0 -2.5,0 0,-11.041667 z m 10.70232,-0.697631 c 1.25561,-1.179587 1.32355,-3.734832 0.13102,-4.927369 -0.64815,-0.648148 -1.38889,-0.833333 -3.33334,-0.833333 l -2.5,0 0,3.333333 0,3.333334 2.36898,0 c 1.85883,0 2.57665,-0.195097 3.33334,-0.905965 z"
       id="path3391"
       inkscape:connector-curvature="0"
       transform="scale(0.28222222,0.2822222)" />
    <path
       style="fill:#00008b;fill-opacity:1"
       d="m 443.01174,69.305125 c -5.05737,-1.303603 -8.50034,-6.34868 -8.01152,-11.739506 0.83583,-9.217646 10.89957,-13.226112 17.05368,-6.79261 3.87213,4.047921 4.13756,10.202543 0.63791,14.790903 -2.20517,2.891168 -6.5153,4.556973 -9.68007,3.741213 z m 5.48807,-6.778692 c 2.07754,-1.951748 2.04279,-5.981607 -0.0698,-8.094196 -2.81241,-2.8124 -7.59889,-1.117107 -8.36422,2.962468 -0.35599,1.897578 7.9e-4,3.186737 1.3137,4.747065 1.87215,2.224919 4.98258,2.392955 7.12031,0.384663 z"
       id="path3393"
       inkscape:connector-curvature="0"
       transform="scale(0.28222222,0.2822222)" />
    <path
       style="fill:#00008b;fill-opacity:1"
       d="m 239.86806,69.302742 c -5.13507,-1.313836 -8.59955,-6.564477 -7.95423,-12.055133 0.99092,-8.431173 9.90471,-12.476367 16.26717,-7.382258 0.78935,0.631993 0.76027,0.704565 -1.00201,2.500196 -1.76373,1.797109 -1.84784,1.832307 -2.97975,1.24697 -3.74482,-1.93652 -8.07593,1.588494 -7.26472,5.912627 0.17424,0.928773 0.84595,2.105782 1.67473,2.934563 1.15408,1.154078 1.69267,1.383805 3.24428,1.383805 1.25128,0 2.21996,-0.282771 2.95834,-0.863575 1.56178,-1.228498 1.36805,-1.636425 -0.77715,-1.636425 l -1.875,0 0,-1.666667 0,-1.666667 5.04731,0 5.04731,0 -0.29485,1.966232 c -0.94083,6.273897 -6.68999,10.708323 -12.09143,9.326332 z"
       id="path3395"
       inkscape:connector-curvature="0"
       transform="scale(0.28222222,0.2822222)" />
    <path
       style="fill:#00008b;fill-opacity:1"
       d="m 255.49306,58.635178 0,-11.041666 6.25,0 6.25,0 0,2.291666 0,2.291667 -3.75,0 -3.75,0 0,1.875 0,1.875 3.33333,0 3.33333,0 0,2.291667 0,2.291666 -3.33333,0 -3.33333,0 0,2.291667 0,2.291667 3.75,0 3.75,0 0,2.291666 0,2.291667 -6.25,0 -6.25,0 0,-11.041667 z"
       id="path3397"
       inkscape:connector-curvature="0"
       transform="scale(0.28222222,0.2822222)" />
    <path
       style="fill:#00008b;fill-opacity:1"
       d="m 272.15972,58.635178 0,-11.041666 2.5,0 2.5,0 0,8.125 0,8.125 3.75,0 3.75,0 0,2.916666 0,2.916667 -6.25,0 -6.25,0 0,-11.041667 z"
       id="path3399"
       inkscape:connector-curvature="0"
       transform="scale(0.28222222,0.2822222)" />
    <path
       style="fill:#00008b;fill-opacity:1"
       d="m 212.15972,93.175667 0,-11.084511 5.17813,0.147011 c 5.72179,0.162447 6.57952,0.493455 8.46771,3.267774 1.07657,1.581821 1.24812,4.598746 0.35331,6.213466 -0.49116,0.886311 -0.44303,1.165389 0.42041,2.437741 0.53629,0.790266 1.09896,2.097214 1.25038,2.904332 0.38492,2.051807 -0.91237,5.03269 -2.72056,6.25123 -1.29433,0.87225 -1.86416,0.94747 -7.17766,0.94747 l -5.77172,0 0,-11.084513 z m 10,6.084511 c 1.78405,-1.784047 0.62479,-3.386741 -2.64589,-3.657971 l -2.35411,-0.19522 0,2.343262 0,2.343261 2.08334,0 c 1.52777,0 2.30555,-0.22222 2.91666,-0.833332 z m -1.34271,-8.565293 c 1.18871,-0.832603 1.25937,-2.893665 0.12011,-3.50338 -0.44327,-0.23723 -1.47452,-0.431327 -2.29167,-0.431327 l -1.48573,0 0,2.291667 0,2.291667 1.36563,0 c 0.75109,0 1.78234,-0.291882 2.29166,-0.648627 z"
       id="path3401"
       inkscape:connector-curvature="0"
       transform="scale(0.28222222,0.2822222)" />
    <path
       style="fill:#00008b;fill-opacity:1"
       d="m 236.93526,103.47748 c -2.11989,-0.96294 -4.89455,-4.080768 -5.53553,-6.220153 -0.62724,-2.093554 -0.62724,-5.56741 0,-7.660964 0.62121,-2.073402 3.28432,-5.119093 5.43581,-6.2167 3.26276,-1.664535 7.84107,-0.875632 10.6732,1.839133 2.46364,2.361555 3.18265,4.215871 3.18265,8.208049 0,3.992178 -0.71901,5.846494 -3.18265,8.208045 -2.74421,2.6305 -7.14906,3.39811 -10.57348,1.84259 z m 6.50761,-5.344828 c 4.39662,-2.597146 2.51341,-10.122474 -2.53315,-10.122474 -2.99755,0 -5.0023,2.206487 -4.99725,5.500142 0.006,4.163883 4.07682,6.66241 7.5304,4.622332 z"
       id="path3403"
       inkscape:connector-curvature="0"
       transform="scale(0.28222222,0.2822222)" />
    <path
       style="fill:#00008b;fill-opacity:1"
       d="m 259.98252,103.11094 c -3.50863,-2.03587 -5.37917,-5.407095 -5.38966,-9.713654 -0.0109,-4.457189 1.8419,-7.739868 5.48863,-9.724667 1.54995,-0.843587 2.67806,-1.138631 4.3536,-1.138631 2.4004,0 5.43114,1.083891 6.4369,2.302044 0.52167,0.631841 0.40532,0.906281 -1.04167,2.457151 -0.89591,0.960227 -1.66368,1.814745 -1.70615,1.89893 -0.0425,0.08419 -0.50607,-0.147311 -1.03021,-0.514435 -1.20047,-0.840841 -3.36049,-0.856316 -4.94788,-0.03545 -3.32924,1.721622 -3.32924,7.847606 0,9.569228 1.98724,1.027637 3.97129,0.81023 5.5279,-0.605734 l 1.36074,-1.237786 -2.1875,-0.01221 -2.1875,-0.01221 0,-1.875 0,-1.875 5,0 5,0 0,1.384108 c 0,3.599531 -2.67459,7.81925 -5.966,9.41259 -2.68433,1.29947 -6.18375,1.18728 -8.7112,-0.27927 z"
       id="path3405"
       inkscape:connector-curvature="0"
       transform="scale(0.28222222,0.2822222)" />
    <path
       style="fill:#00008b;fill-opacity:1"
       d="m 277.15972,103.93636 c 0,-0.1781 2.05001,-5.099973 4.55556,-10.937499 5.94281,-13.845732 5.39584,-13.713418 10.28788,-2.488683 1.9476,4.46875 4.08372,9.390625 4.74693,10.937502 l 1.20584,2.8125 -2.5027,0 c -2.46638,0 -2.51154,-0.0212 -3.11203,-1.45834 l -0.60933,-1.45833 -4.34243,0 -4.34244,0 -0.52734,1.45833 c -0.52013,1.4384 -0.56038,1.45834 -2.94364,1.45834 -1.32896,0 -2.4163,-0.14572 -2.4163,-0.32382 z m 12.5,-7.332669 c 0,-0.412606 -2.10107,-4.843513 -2.29672,-4.843513 -0.12315,0 -0.39044,0.421875 -0.59399,0.9375 -0.20354,0.515625 -0.67017,1.640625 -1.03694,2.5 l -0.66686,1.5625 2.29726,0 c 1.26349,0 2.29725,-0.07042 2.29725,-0.156487 z"
       id="path3407"
       inkscape:connector-curvature="0"
       transform="scale(0.28222222,0.2822222)" />
    <path
       style="fill:#00008b;fill-opacity:1"
       d="m 301.32639,93.160394 0,-11.099785 4.6875,0.211682 c 5.24843,0.237012 7.2331,0.858362 9.41151,2.946505 2.46047,2.358505 3.18202,4.216471 3.18766,8.208049 0.004,3.112256 -0.13294,3.776307 -1.13266,5.476918 -2.50085,4.254137 -4.83632,5.356417 -11.34896,5.356417 l -4.80505,0 0,-11.099786 z m 10.03315,4.972258 c 1.69942,-1.003877 2.61157,-3.133395 2.34711,-5.479648 -0.16992,-1.50756 -0.5269,-2.191867 -1.70809,-3.274347 -1.27277,-1.166412 -1.80179,-1.368479 -3.58272,-1.368479 l -2.08945,0 0,5.416667 0,5.416667 1.91488,0 c 1.05689,0 2.45407,-0.318512 3.11827,-0.71086 z"
       id="path3409"
       inkscape:connector-curvature="0"
       transform="scale(0.28222222,0.2822222)" />
    <path
       style="fill:#00008b;fill-opacity:1"
       d="m 328.61806,103.68149 c -2.05253,-0.89665 -3.93034,-2.73124 -5.11416,-4.99642 -1.5942,-3.050455 -1.5942,-7.465995 0,-10.51645 1.94218,-3.716287 4.98494,-5.634632 8.93731,-5.634632 6.66805,0 11.54653,7.074739 9.56906,13.876995 -1.4355,4.937927 -5.07174,7.864427 -9.73253,7.832887 -1.32532,-0.009 -2.97218,-0.26204 -3.65968,-0.56238 z m 7.10161,-6.10515 c 3.47658,-3.266082 1.26928,-9.566162 -3.35161,-9.566162 -4.9071,0 -6.92615,6.529277 -3.03224,9.805782 1.14237,0.961245 1.60853,1.090213 3.3394,0.923897 1.34024,-0.12878 2.3564,-0.517134 3.04445,-1.163517 z"
       id="path3411"
       inkscape:connector-curvature="0"
       transform="scale(0.28222222,0.2822222)" />
  </g>
</svg>
